<svg width="800" height="600" xmlns="http://www.w3.org/2000/svg">

 <g>
  <title>Layer 1</title>
  <text xml:space="preserve" text-anchor="start" font-family="Noto Sans JP" font-size="24" id="svg_1" y="119" x="275" stroke-width="0" stroke="#000" fill="#4646ce">Harish N Shetty</text>
  <path stroke="#000" id="svg_2" d="m232.50012,106.37879c3.36136,0 6.72272,0 10.08408,0c0,2.93617 0,5.87234 0,8.80851c-3.36136,0 -6.72272,0 -10.08408,0c0,-2.93617 0,-5.87234 0,-8.80851zm-14.5659,0c3.73482,0 7.46972,0 11.20454,0c0,2.93617 0,5.87234 0,8.80851c-3.73482,0 -7.46972,0 -11.20454,0c0,-2.93617 0,-5.87234 0,-8.80851zm-13.44545,0c3.73482,0 7.46972,0 11.20454,0c0,2.93617 0,5.87234 0,8.80851c-3.73482,0 -7.46972,0 -11.20454,0c0,-2.93617 0,-5.87234 0,-8.80851zm-13.44545,0c3.73482,0 7.46972,0 11.20454,0c0,2.93617 0,5.87234 0,8.80851c-3.73483,0 -7.46972,0 -11.20454,0c0,-2.93617 0,-5.87234 0,-8.80851zm41.4568,18.16473c3.54812,-0.19888 7.09619,0.14052 10.64431,-0.05836c0.22766,-3.09929 0.12221,-6.19859 0.34987,-9.29787c3.32047,0 6.97404,0 10.29444,0c0,-2.93617 0,-5.87234 0,-8.80851c-3.36136,0 -6.72272,0 -10.08408,0c0,-3.26242 0,-6.52483 0,-9.78724c-3.73482,0 -7.46972,0 -11.20454,0c0,-2.93617 0,-5.87234 0,-8.80851c3.73482,0 7.46972,0 11.20454,0c0,2.93617 0,5.87234 0,8.80851c3.3204,0 6.97398,-0.14548 10.29444,-0.14548c0.22766,3.09928 0.12221,6.34407 0.34987,9.44336c3.54812,0.19887 7.14623,-0.01687 10.69436,0.182c0,2.90042 -0.05005,6.21545 -0.05005,9.11588c-3.73482,0 -7.46972,0 -11.20454,0c0,3.26242 0,6.52482 0,9.78724c-3.36136,0 -6.72272,0 -10.08408,0c0,2.93617 0,5.87234 0,8.80851c-3.73482,0 -7.46972,0 -11.20454,0c0,-2.90042 0,-6.33909 0,-9.23952l0,0.00001z" stroke-width="0" fill="#4646ce"/>
 </g>
</svg>